:SAMPLES-PER-SECOND 30
:FULLY-SPECIFIED
:DEGREES
768
root  38.1323 38.1763 -22.9239 22.8872 76.4609 28.898
RightUpLeg  -0.671138 7.80252 -15.4418
RightLeg  46.8542 -7.98628 -9.29256
RightFoot  -7.58657 -0.205703 6.04977
RightToes  0.000482159 0.542163 -0.142577
Spine  18.5862 -1.32812 -4.68934
Spine1  7.6597 -4.45435 9.2379
HEad  4.88015 -12.1632 8.19945
LeftShoulder1  9.07992 -14.3494 -44.29
LeftArm  -15.8552 8.43498 -20.7144
LeftForeArm  21.0249 -8.82791 -3.73571
LeftHand  -0.25398 0.0180481 5.50724
RightShoulder  3.65869 7.14513 28.3592
RightArm  -19.7513 -2.16842 33.4059
RightForeArm  -0.0246953 41.5067 9.91562
RightHand  -2.63858 6.85004 -25.0366
LeftUpLeg  -15.4704 22.2992 2.12061
LeftLeg  24.2853 -5.2715 -2.26028
LeftFoot  -0.915193 0.655151 -7.11861
LeftToes  1.06246e-005 4.65854e-005 -8.18503e-006
769
root  39.3111 38.3505 -23.5776 24.3156 74.3671 30.2468
RightUpLeg  -7.1914 5.09519 -17.2796
RightLeg  54.7824 -7.18857 -11.0975
RightFoot  0.540451 -0.0675251 0.35686
RightToes  0.000482159 0.542163 -0.142577
Spine  19.5915 -1.36827 -5.61821
Spine1  7.2376 -4.57924 8.68847
HEad  5.01862 -12.3506 7.28892
LeftShoulder1  9.32345 -14.6441 -44.76
LeftArm  -13.8726 6.69874 -21.1322
LeftForeArm  22.3189 -5.96328 -4.25151
LeftHand  -0.25398 0.0180481 5.50724
RightShoulder  3.7741 7.26897 29.0523
RightArm  -19.3069 -1.24699 35.0484
RightForeArm  -1.20859 38.7697 9.07853
RightHand  -3.17706 8.52348 -26.4945
LeftUpLeg  -13.571 23.9533 0.0721927
LeftLeg  24.4723 -4.56202 -1.93134
LeftFoot  -3.33904 0.431549 -5.90859
LeftToes  1.06246e-005 4.65854e-005 -8.18503e-006
770
root  40.4575 38.6183 -24.1862 22.6562 73.2052 28.4287
RightUpLeg  -12.2801 0.375014 -16.9974
RightLeg  57.9298 -4.39437 -8.01634
RightFoot  2.19644 0.0562737 -0.345531
RightToes  0.000482159 0.542163 -0.142577
Spine  20.7636 -1.9105 -5.07003
Spine1  6.63719 -5.09514 8.74863
HEad  4.78427 -11.8432 6.06979
LeftShoulder1  9.55909 -14.835 -45.4404
LeftArm  -12.9211 5.27482 -21.8229
LeftForeArm  26.3666 -5.5975 -4.53657
LeftHand  -0.25398 0.0180481 5.50724
RightShoulder  3.88697 7.39446 29.6965
RightArm  -17.2525 0.0680308 36.7707
RightForeArm  -2.71342 34.6512 7.92804
RightHand  -3.31429 9.12361 -26.4884
LeftUpLeg  -11.2547 24.1451 -0.833069
LeftLeg  23.3516 -3.38471 -1.26731
LeftFoot  -3.92004 0.323968 -4.63344
LeftToes  1.06246e-005 4.65854e-005 -8.18503e-006
771
root  41.5779 38.975 -24.6919 19.0875 72.0548 24.4143
RightUpLeg  -16.3892 -5.29128 -14.6389
RightLeg  56.9523 -2.36331 -4.38603
RightFoot  0.568037 -0.302436 2.95962
RightToes  0.000482159 0.542163 -0.142577
Spine  21.8461 -2.3633 -4.00748
Spine1  6.12423 -5.5083 9.13181
HEad  4.19916 -11.2213 5.33497
LeftShoulder1  9.79334 -14.9779 -46.2201
LeftArm  -12.5029 3.97511 -22.8531
LeftForeArm  30.6585 -7.00901 -4.76339
LeftHand  -0.25398 0.0180481 5.50724
RightShoulder  4.06052 7.70406 30.2697
RightArm  -13.6349 1.44618 38.1035
RightForeArm  -3.907 29.377 6.55371
RightHand  -3.0382 8.68683 -25.0884
LeftUpLeg  -8.8503 24.7159 -0.872281
LeftLeg  21.5734 -2.42266 -0.649302
LeftFoot  -4.86692 0.239802 -3.72438
LeftToes  1.06246e-005 4.65854e-005 -8.18503e-006
772
root  42.7068 39.2962 -25.0786 16.207 69.9066 20.5998
RightUpLeg  -20.5069 -10.8457 -10.968
RightLeg  52.9447 -2.70817 -4.17713
RightFoot  -0.748186 -0.528495 5.60924
RightToes  0.000482159 0.542163 -0.142577
Spine  22.347 -2.34988 -3.61467
Spine1  5.61639 -5.54232 9.54215
HEad  3.89583 -10.5868 5.24637
LeftShoulder1  9.97769 -15.1424 -46.6877
LeftArm  -12.3139 3.08023 -24.2903
LeftForeArm  32.7609 -9.27982 -4.91306
LeftHand  -0.25398 0.0180481 5.50724
RightShoulder  4.27627 8.11806 30.8437
RightArm  -9.59233 2.85475 39.19
RightForeArm  -3.38439 22.8439 5.36132
RightHand  -2.60594 7.78919 -23.0737
LeftUpLeg  -6.48436 25.9599 -0.795065
LeftLeg  19.3081 -1.1178 -0.570483
LeftFoot  -6.45879 0.192955 -3.63131
LeftToes  1.06246e-005 4.65854e-005 -8.18503e-006
773
root  43.8732 39.5125 -25.3921 15.0892 67.0153 18.4011
RightUpLeg  -24.3021 -16.3359 -6.47883
RightLeg  46.6065 -4.63339 -5.54576
RightFoot  -1.78595 -0.433119 5.0032
RightToes  0.000482159 0.542163 -0.142577
Spine  22.318 -2.14727 -4.05527
Spine1  5.13898 -5.48345 10.0445
HEad  4.12399 -9.78351 5.46181
LeftShoulder1  10.0565 -15.3181 -46.6153
LeftArm  -12.1958 2.61264 -25.9542
LeftForeArm  31.9829 -11.8155 -4.73124
LeftHand  -0.25398 0.0180481 5.50724
RightShoulder  4.49578 8.49153 31.5346
RightArm  -9.63114 4.12814 40.189
RightForeArm  1.79125 15.5023 5.57167
RightHand  -2.24976 6.90611 -21.4186
LeftUpLeg  -3.7256 22.4058 -0.686235
LeftLeg  16.3042 5.465 -1.52063
LeftFoot  -7.23959 0.17985 -3.80805
LeftToes  1.06246e-005 4.65854e-005 -8.18503e-006
774
root  45.0753 39.5933 -25.6519 15.1452 64.3441 17.8059
RightUpLeg  -26.756 -22.7283 -1.61962
RightLeg  38.0217 -5.10507 -4.59395
RightFoot  -3.03169 -0.311488 4.03361
RightToes  0.000482159 0.542163 -0.142577
Spine  22.1939 -2.19827 -4.98264
Spine1  5.01799 -5.77848 10.5526
HEad  4.43705 -8.9712 5.71526
LeftShoulder1  10.0523 -15.4671 -46.2179
LeftArm  -12.1911 2.00121 -27.2914
LeftForeArm  29.7634 -14.3389 -4.33208
LeftHand  -0.25398 0.0180481 5.50724
RightShoulder  4.70473 8.77309 32.3807
RightArm  -13.2905 4.73147 41.0828
RightForeArm  7.85478 9.39976 5.81797
RightHand  -2.05971 6.20711 -20.802
LeftUpLeg  -1.09879 14.4609 -1.50421
LeftLeg  13.4561 15.9521 -2.73387
LeftFoot  -7.70501 0.156887 -3.45617
LeftToes  1.06246e-005 4.65854e-005 -8.18503e-006
